<svg version="1.1" id="Layer_1" xmlns="http://www.w3.org/2000/svg" xmlns:xlink="http://www.w3.org/1999/xlink" x="0px" y="0px"
	 width="100%" viewBox="0 0 512 512" enable-background="new 0 0 512 512" xml:space="preserve">
<path fill="#000000" opacity="1.000000" stroke="none" 
	d="
M513.000000,197.000000 
	C513.000000,302.640991 513.000000,407.781982 513.000000,512.961487 
	C342.400665,512.961487 171.801315,512.961487 1.100989,512.961487 
	C1.100989,342.442383 1.100989,171.884659 1.100989,1.163473 
	C171.666534,1.163473 342.333252,1.163473 513.000000,1.163473 
	C513.000000,66.198639 513.000000,131.349319 513.000000,197.000000 
M466.979004,265.666748 
	C471.621124,272.469757 479.386169,275.241425 486.748627,272.723236 
	C493.648132,270.363403 497.029755,264.724365 497.000793,255.626968 
	C496.979523,248.943192 492.162384,242.537842 486.054596,241.071747 
	C477.715912,239.070160 470.106659,242.211746 465.868439,249.005234 
	C414.967560,249.002243 364.066711,248.999252 313.027252,248.068558 
	C313.073517,240.380051 313.119751,232.691559 314.081726,225.002014 
	C340.354218,225.001099 366.627472,225.090012 392.897949,224.859818 
	C395.515045,224.836884 398.714508,223.503830 400.620819,221.698654 
	C409.552063,213.241364 418.034363,204.311249 426.910431,195.793274 
	C428.494019,194.273651 431.161652,193.177399 433.359375,193.122925 
	C444.493561,192.846893 455.637817,192.979156 466.978912,193.666061 
	C471.619446,200.469162 479.385437,203.241455 486.748444,200.723404 
	C493.647797,198.363892 497.029755,192.724304 497.000793,183.626892 
	C496.979523,176.943039 492.162079,170.537491 486.054230,169.071655 
	C477.715057,167.070343 470.105682,170.212326 465.868164,177.005798 
	C452.399445,177.004105 438.928711,177.130890 425.463379,176.916199 
	C421.799500,176.857773 419.275970,178.021713 416.776489,180.607773 
	C408.688538,188.975922 400.279846,197.034103 392.193451,205.403687 
	C389.691040,207.993759 387.156158,209.107040 383.502106,209.081924 
	C360.057648,208.920853 336.611572,208.998032 313.027283,208.069153 
	C313.073578,200.380280 313.119904,192.691422 314.081879,185.001663 
	C329.570679,185.000824 345.060974,184.884781 360.547211,185.083725 
	C364.214386,185.130829 366.712006,183.945129 369.243286,181.389069 
	C388.227997,162.218597 407.294098,143.127335 426.519867,124.199356 
	C428.285797,122.460815 431.319092,121.217194 433.806763,121.140839 
	C444.788696,120.803795 455.786316,120.978363 466.978882,121.665459 
	C471.617859,128.468582 479.384766,131.241547 486.748260,128.723587 
	C493.647522,126.364365 497.029724,120.724312 497.000763,111.626846 
	C496.979492,104.943024 492.161713,98.537155 486.053925,97.071571 
	C477.714447,95.070480 470.104889,98.212822 465.867920,105.006187 
	C452.544312,105.004395 439.219086,105.115639 425.898071,104.928688 
	C422.131927,104.875832 419.412079,105.919930 416.710815,108.655174 
	C397.869934,127.733200 378.816132,146.600861 359.944366,165.648666 
	C357.522797,168.092819 355.080017,169.121765 351.637177,169.072830 
	C338.815765,168.890564 325.990204,168.998459 313.027313,168.069611 
	C313.073639,160.380447 313.119965,152.691269 314.081970,145.001312 
	C321.567352,145.000488 329.059845,144.806763 336.535126,145.081268 
	C340.202118,145.215927 342.690155,143.954849 345.226898,141.404343 
	C374.787292,111.683807 404.479462,82.094345 434.047668,52.381554 
	C436.461975,49.955452 438.871948,48.831345 442.328156,48.925011 
	C450.472534,49.145729 458.627441,48.977848 466.978851,49.665012 
	C471.616669,56.468159 479.384308,59.241600 486.748138,56.723682 
	C493.647400,54.364605 497.029724,48.724346 497.000763,39.626762 
	C496.979492,32.942905 492.161499,26.536936 486.053680,25.071533 
	C477.713837,23.070614 470.104126,26.213238 465.867767,33.006584 
	C455.720947,33.004738 445.566864,33.228535 435.430420,32.902966 
	C430.582428,32.747250 427.126831,34.167496 423.668213,37.664989 
	C397.937012,63.685547 371.513000,89.041191 346.362183,115.605110 
	C336.772278,125.733841 327.061951,131.498978 313.027466,128.077789 
	C313.018341,125.254242 313.009949,122.430695 312.999908,119.607147 
	C312.968781,110.838226 306.780304,105.004845 297.504456,105.000092 
	C287.333496,104.994881 281.043121,110.565117 280.997437,119.593803 
	C280.954620,128.061279 280.889801,136.528656 279.919128,144.997437 
	C261.344025,145.003067 242.768951,145.008698 224.025803,144.243301 
	C218.226608,119.755867 188.744125,114.948929 172.392395,127.031929 
	C171.811920,126.726875 171.185135,126.486275 170.657623,126.107468 
	C149.330841,110.792847 127.969803,95.525352 106.714394,80.112190 
	C97.652443,73.541008 88.813583,66.662170 79.986534,59.077747 
	C80.324417,55.003399 81.068222,50.915451 80.932243,46.856979 
	C80.217896,25.537182 61.328533,13.210006 40.814022,17.652401 
	C25.931942,20.875099 15.988886,35.071121 16.858784,50.079506 
	C17.608749,63.018730 22.800570,72.786514 34.626526,78.015404 
	C46.947041,83.462975 59.042175,82.764885 70.192177,74.502159 
	C70.757690,75.108269 71.240936,75.828514 71.900612,76.303986 
	C94.890144,92.874153 117.925842,109.380455 140.882706,125.995689 
	C148.064392,131.193497 155.039948,136.676102 162.012909,142.775452 
	C161.943024,143.522202 161.873138,144.268951 160.891602,145.000916 
	C133.981293,144.978745 107.070976,144.956589 80.020386,144.167725 
	C74.886414,124.639427 56.784000,117.711548 39.439152,122.029396 
	C26.035566,125.366096 16.001459,138.810745 16.863705,154.069000 
	C17.595165,167.012924 22.788771,176.799637 34.630280,182.015579 
	C46.948936,187.441696 59.058128,186.775909 70.192459,178.501785 
	C71.458931,179.529602 72.681259,180.618164 73.998856,181.575638 
	C84.612877,189.288589 95.244843,196.976883 106.311470,204.991455 
	C101.824387,208.257751 97.830780,211.096634 93.910202,214.033020 
	C85.898163,220.033768 77.925392,226.086929 69.296089,231.857422 
	C61.007484,224.167297 51.016758,223.805206 40.787865,225.757385 
	C25.916132,228.595642 15.963061,243.169632 16.854555,258.119934 
	C17.626179,271.060089 22.832741,280.828888 34.651196,286.028290 
	C46.954613,291.441071 59.068146,290.783203 70.188965,282.497253 
	C71.326904,283.431732 72.422081,284.424805 73.609444,285.291626 
	C84.335800,293.122223 95.078331,300.930695 106.220512,309.040009 
	C102.122002,312.090881 98.446037,314.820831 94.776794,317.559814 
	C86.497047,323.740417 78.220634,329.925507 69.298508,335.853119 
	C61.024151,328.180145 51.039478,327.867188 40.832108,329.748169 
	C34.000301,331.007141 28.508015,334.732788 23.860050,340.182526 
	C17.073162,348.140137 16.003494,357.433899 17.195648,366.940063 
	C18.148897,374.541260 21.889851,381.075592 28.263979,386.167603 
	C35.107346,391.634369 42.625706,393.067383 51.059528,393.105286 
	C64.146027,393.164032 78.097290,382.585938 81.075394,369.032349 
	C107.984665,369.016235 134.893936,369.000092 161.973328,369.671997 
	C162.289993,370.763885 162.606659,371.855804 162.348465,373.289764 
	C149.739532,383.106354 137.175888,392.981781 124.510658,402.725159 
	C107.271698,415.987091 89.955162,429.148224 72.169220,441.885437 
	C64.003922,433.447968 53.575142,431.734589 42.745872,433.201691 
	C35.313488,434.208557 28.961271,438.029236 23.853973,444.139313 
	C17.139902,452.171692 15.984835,461.443054 17.199356,470.968872 
	C18.169241,478.575928 22.032372,484.991730 28.308727,490.228027 
	C36.257828,496.859894 45.308762,497.854248 54.677940,496.829407 
	C62.391468,495.985626 68.895905,492.124542 74.094604,485.913422 
	C81.295723,477.309937 81.712646,467.450378 81.363533,456.892792 
	C82.599518,456.073761 83.887413,455.322754 85.063538,454.425262 
	C98.845253,443.908539 112.628845,433.394073 126.374641,422.830536 
	C141.955673,410.856598 157.498886,398.833466 173.694748,387.156036 
	C189.906250,399.521118 219.624680,393.059174 225.105820,368.999603 
	C243.682098,369.001038 262.258392,369.002472 280.972839,369.931610 
	C280.981873,373.913269 280.883881,377.898926 281.033508,381.875305 
	C281.155609,385.119263 280.882935,388.614441 281.993896,391.539154 
	C284.963837,399.357666 291.932861,402.481049 301.418091,400.978790 
	C307.995148,399.937103 312.713043,393.521179 314.081512,385.001282 
	C317.907257,385.000549 321.758057,385.275177 325.552460,384.930084 
	C330.409180,384.488403 333.854889,386.175507 337.315063,389.668457 
	C366.463531,419.092651 395.834198,448.296692 425.047119,477.657379 
	C427.471527,480.093994 429.907928,481.133209 433.345917,481.070648 
	C444.486908,480.867706 455.633606,480.977692 466.978851,481.665070 
	C471.616882,488.468231 479.384369,491.241608 486.748169,488.723663 
	C493.647491,486.364624 497.029724,480.724396 497.000763,471.626740 
	C496.979492,464.942902 492.161469,458.536926 486.053650,457.071533 
	C477.713806,455.070648 470.104095,458.213257 465.867767,465.006622 
	C458.215851,465.004700 450.558655,464.833191 442.914307,465.072968 
	C439.140076,465.191345 436.445526,464.054413 433.745758,461.337097 
	C404.435211,431.835876 374.945923,402.512146 345.656921,372.989716 
	C342.688080,369.997223 339.755493,368.764221 335.620056,368.920685 
	C328.145203,369.203400 320.651886,368.998962 313.027283,368.070038 
	C313.073578,360.380859 313.119873,352.691711 314.081879,345.001678 
	C326.239349,345.000946 338.399536,345.146637 350.552734,344.918152 
	C354.677673,344.840637 357.641937,345.963745 360.611145,348.978119 
	C379.426697,368.079712 398.403381,387.024292 417.513641,405.830963 
	C419.277130,407.566437 422.330475,408.811127 424.813080,408.860229 
	C438.796722,409.136963 452.788940,408.978027 466.978882,409.665466 
	C471.617828,416.468567 479.384766,419.241547 486.748260,416.723572 
	C493.647614,414.364319 497.029724,408.724396 497.000763,399.626831 
	C496.979492,392.942993 492.161774,386.537201 486.053955,385.071625 
	C477.714417,383.070465 470.104980,386.212738 465.867920,393.006226 
	C455.375244,393.004272 444.880157,392.874725 434.391266,393.073090 
	C430.948914,393.138153 428.506195,392.103485 426.082275,389.656677 
	C407.210876,370.607269 388.155945,351.739532 369.314056,332.661224 
	C366.615051,329.928314 363.900726,328.886658 360.132812,328.928040 
	C344.478912,329.099976 328.821991,328.998566 313.027252,328.069611 
	C313.073517,320.380768 313.119751,312.691895 314.081726,305.002014 
	C337.360291,305.001312 360.639954,304.898499 383.915955,305.142151 
	C386.530182,305.169525 389.714203,306.533691 391.626068,308.342957 
	C400.438965,316.682800 408.777954,325.522919 417.575226,333.880127 
	C419.373810,335.588745 422.395203,336.814606 424.880188,336.863007 
	C438.841705,337.134979 452.811554,336.978546 466.978943,337.666077 
	C471.619415,344.469147 479.385468,347.241455 486.748444,344.723389 
	C493.647888,342.363800 497.029724,336.724365 497.000763,327.626862 
	C496.979492,320.943054 492.162018,314.537445 486.054199,313.071655 
	C477.714996,311.070343 470.105621,314.212372 465.868164,321.005829 
	C455.392120,321.003937 444.913849,320.878601 434.441345,321.070679 
	C431.020111,321.133392 428.533081,320.190948 426.125244,317.704407 
	C417.797668,309.104675 409.377747,300.582825 400.683472,292.358551 
	C398.770142,290.548615 395.591705,289.165619 392.982208,289.142731 
	C366.378448,288.909393 339.771820,288.998230 313.027252,288.069092 
	C313.073456,280.380615 313.119629,272.692169 314.081573,265.002533 
	C364.980682,264.991364 415.879761,264.980194 466.979004,265.666748 
z"/>
<path fill="#F82F45" opacity="1.000000" stroke="none" 
	d="
M313.166199,185.002548 
	C313.119904,192.691422 313.073578,200.380280 313.032166,208.995316 
	C313.080048,214.948669 313.123016,219.975861 313.166016,225.003052 
	C313.119751,232.691559 313.073517,240.380051 313.032043,248.994751 
	C313.079865,254.948532 313.122833,259.976105 313.165833,265.003693 
	C313.119629,272.692169 313.073456,280.380615 313.032166,288.995300 
	C313.080078,294.948669 313.123047,299.975861 313.166016,305.003052 
	C313.119751,312.691895 313.073517,320.380768 313.032257,328.995789 
	C313.080231,334.948822 313.123230,339.975677 313.166199,345.002533 
	C313.119873,352.691711 313.073578,360.380859 313.032318,368.996216 
	C313.080322,374.948944 313.123322,379.975494 313.166321,385.002075 
	C312.713043,393.521179 307.995148,399.937103 301.418091,400.978790 
	C291.932861,402.481049 284.963837,399.357666 281.993896,391.539154 
	C280.882935,388.614441 281.155609,385.119263 281.033508,381.875305 
	C280.883881,377.898926 280.981873,373.913269 280.968323,369.005463 
	C280.920837,363.051483 280.877869,358.023651 280.903870,352.531006 
	C280.926758,323.045410 280.880676,294.024658 280.899200,264.541443 
	C280.920746,259.051331 280.877716,254.023712 280.903748,248.532181 
	C280.926849,219.046921 280.880859,190.025574 280.899231,160.540894 
	C280.920654,155.050415 280.877655,150.023254 280.834656,144.996078 
	C280.889801,136.528656 280.954620,128.061279 280.997437,119.593803 
	C281.043121,110.565117 287.333496,104.994881 297.504456,105.000092 
	C306.780304,105.004845 312.968781,110.838226 312.999908,119.607147 
	C313.009949,122.430695 313.018341,125.254242 313.032410,129.000046 
	C313.080322,134.948898 313.123291,139.975510 313.166290,145.002106 
	C313.119965,152.691269 313.073639,160.380447 313.032288,168.995758 
	C313.080231,174.948792 313.123199,179.975677 313.166199,185.002548 
z"/>
<path fill="#2D366D" opacity="1.000000" stroke="none" 
	d="
M69.936455,232.118500 
	C77.925392,226.086929 85.898163,220.033768 93.910202,214.033020 
	C97.830780,211.096634 101.824387,208.257751 106.311470,204.991455 
	C95.244843,196.976883 84.612877,189.288589 73.998856,181.575638 
	C72.681259,180.618164 71.458931,179.529602 70.172119,177.858627 
	C73.390526,172.791122 76.629280,168.366776 80.032104,164.246460 
	C92.710556,173.675598 105.254570,182.760529 117.714378,191.959549 
	C120.212234,193.803726 122.193237,193.876465 124.700188,191.916885 
	C129.363907,188.271484 134.218765,184.864655 139.067825,181.463684 
	C146.998245,175.901505 154.987747,170.423553 163.192596,165.162659 
	C166.617569,169.886063 169.802292,174.356888 172.644943,178.916382 
	C160.249161,187.588638 148.195480,196.172180 135.827530,204.979523 
	C141.420166,209.039719 146.263428,212.477798 151.022202,216.029068 
	C158.150192,221.348312 165.218826,226.747101 172.154266,232.422516 
	C168.720383,237.151962 165.444931,241.570923 161.989471,245.696472 
	C149.026062,236.011154 136.276459,226.572174 123.389908,217.324005 
	C122.440857,216.642929 120.152100,216.794830 119.086472,217.485550 
	C113.953094,220.813004 108.967377,224.378998 104.038391,228.008560 
	C95.939751,233.972137 87.925285,240.050064 79.582062,245.909348 
	C76.171333,241.198776 73.053894,236.658646 69.936455,232.118500 
z"/>
<path fill="#2D366D" opacity="1.000000" stroke="none" 
	d="
M69.942856,336.108765 
	C78.220634,329.925507 86.497047,323.740417 94.776794,317.559814 
	C98.446037,314.820831 102.122002,312.090881 106.220512,309.040009 
	C95.078331,300.930695 84.335800,293.122223 73.609444,285.291626 
	C72.422081,284.424805 71.326904,283.431732 70.168930,281.854614 
	C73.390038,276.779938 76.631165,272.347931 80.026497,268.227905 
	C89.760597,275.533508 99.261841,282.638824 108.957214,289.468536 
	C113.123322,292.403290 117.824768,297.021698 122.042274,296.774139 
	C126.541107,296.510071 130.769073,291.421539 135.091522,288.405121 
	C144.385254,281.919556 153.663712,275.412079 163.189743,269.165100 
	C166.616730,273.887146 169.802414,278.357697 172.644775,282.914490 
	C160.258514,291.601807 148.215561,300.202820 135.871552,309.018860 
	C141.395142,313.035034 146.238281,316.484894 151.004105,320.038513 
	C158.137695,325.357605 165.216919,330.749664 172.164429,336.417786 
	C168.735031,341.146667 165.460449,345.568481 162.004364,349.696899 
	C148.957642,339.970581 136.126358,330.490204 123.153336,321.207977 
	C122.255234,320.565430 119.983971,320.913086 118.893639,321.627716 
	C113.942719,324.872772 109.141678,328.353882 104.369820,331.863037 
	C96.172707,337.891144 88.037476,344.003448 79.582603,349.910400 
	C76.173576,345.196533 73.058220,340.652649 69.942856,336.108765 
z"/>
<path fill="#4BBEE5" opacity="1.000000" stroke="none" 
	d="
M80.665421,457.118256 
	C81.712646,467.450378 81.295723,477.309937 74.094604,485.913422 
	C68.895905,492.124542 62.391468,495.985626 54.677940,496.829407 
	C45.308762,497.854248 36.257828,496.859894 28.308727,490.228027 
	C22.032372,484.991730 18.169241,478.575928 17.199356,470.968872 
	C15.984835,461.443054 17.139902,452.171692 23.853973,444.139313 
	C28.961271,438.029236 35.313488,434.208557 42.745872,433.201691 
	C53.575142,431.734589 64.003922,433.447968 72.454208,442.467194 
	C75.381279,447.738708 78.023354,452.428497 80.665421,457.118256 
z"/>
<path fill="#4BBEE5" opacity="1.000000" stroke="none" 
	d="
M69.917519,73.855644 
	C59.042175,82.764885 46.947041,83.462975 34.626526,78.015404 
	C22.800570,72.786514 17.608749,63.018730 16.858784,50.079506 
	C15.988886,35.071121 25.931942,20.875099 40.814022,17.652401 
	C61.328533,13.210006 80.217896,25.537182 80.932243,46.856979 
	C81.068222,50.915451 80.324417,55.003399 79.637329,59.669430 
	C76.164597,64.792625 73.041054,69.324135 69.917519,73.855644 
z"/>
<path fill="#2D366D" opacity="1.000000" stroke="none" 
	d="
M313.624146,145.001709 
	C313.123291,139.975510 313.080322,134.948898 313.101807,129.460083 
	C327.061951,131.498978 336.772278,125.733841 346.362183,115.605110 
	C371.513000,89.041191 397.937012,63.685547 423.668213,37.664989 
	C427.126831,34.167496 430.582428,32.747250 435.430420,32.902966 
	C445.566864,33.228535 455.720947,33.004738 466.286682,33.391682 
	C464.099426,38.852802 464.801056,43.913033 466.778107,48.967171 
	C458.627441,48.977848 450.472534,49.145729 442.328156,48.925011 
	C438.871948,48.831345 436.461975,49.955452 434.047668,52.381554 
	C404.479462,82.094345 374.787292,111.683807 345.226898,141.404343 
	C342.690155,143.954849 340.202118,145.215927 336.535126,145.081268 
	C329.059845,144.806763 321.567352,145.000488 313.624146,145.001709 
z"/>
<path fill="#4BBEE5" opacity="1.000000" stroke="none" 
	d="
M69.620682,335.980957 
	C73.058220,340.652649 76.173576,345.196533 79.636826,350.266022 
	C80.043228,351.505798 80.101753,352.220001 80.155823,353.353516 
	C80.154327,358.870667 80.157303,363.968414 80.160278,369.066193 
	C78.097290,382.585938 64.146027,393.164032 51.059528,393.105286 
	C42.625706,393.067383 35.107346,391.634369 28.263979,386.167603 
	C21.889851,381.075592 18.148897,374.541260 17.195648,366.940063 
	C16.003494,357.433899 17.073162,348.140137 23.860050,340.182526 
	C28.508015,334.732788 34.000301,331.007141 40.832108,329.748169 
	C51.039478,327.867188 61.024151,328.180145 69.620682,335.980957 
z"/>
<path fill="#2D366D" opacity="1.000000" stroke="none" 
	d="
M313.623901,385.001678 
	C313.123322,379.975494 313.080322,374.948944 313.101807,369.460144 
	C320.651886,368.998962 328.145203,369.203400 335.620056,368.920685 
	C339.755493,368.764221 342.688080,369.997223 345.656921,372.989716 
	C374.945923,402.512146 404.435211,431.835876 433.745758,461.337097 
	C436.445526,464.054413 439.140076,465.191345 442.914307,465.072968 
	C450.558655,464.833191 458.215851,465.004700 466.286682,465.391693 
	C464.099792,470.852814 464.800446,475.913055 466.778107,480.967163 
	C455.633606,480.977692 444.486908,480.867706 433.345917,481.070648 
	C429.907928,481.133209 427.471527,480.093994 425.047119,477.657379 
	C395.834198,448.296692 366.463531,419.092651 337.315063,389.668457 
	C333.854889,386.175507 330.409180,384.488403 325.552460,384.930084 
	C321.758057,385.275177 317.907257,385.000549 313.623901,385.001678 
z"/>
<path fill="#4BBEE5" opacity="1.000000" stroke="none" 
	d="
M79.868027,163.942413 
	C76.629280,168.366776 73.390526,172.791122 70.043365,177.532211 
	C59.058128,186.775909 46.948936,187.441696 34.630280,182.015579 
	C22.788771,176.799637 17.595165,167.012924 16.863705,154.069000 
	C16.001459,138.810745 26.035566,125.366096 39.439152,122.029396 
	C56.784000,117.711548 74.886414,124.639427 80.085403,144.969116 
	C80.153687,150.868881 80.156952,155.967239 80.090576,161.421143 
	C79.969955,162.498581 79.918991,163.220505 79.868027,163.942413 
z"/>
<path fill="#4BBEE5" opacity="1.000000" stroke="none" 
	d="
M79.872299,267.915924 
	C76.631165,272.347931 73.390038,276.779938 70.040680,281.528809 
	C59.068146,290.783203 46.954613,291.441071 34.651196,286.028290 
	C22.832741,280.828888 17.626179,271.060089 16.854555,258.119934 
	C15.963061,243.169632 25.916132,228.595642 40.787865,225.757385 
	C51.016758,223.805206 61.007484,224.167297 69.616272,231.987961 
	C73.053894,236.658646 76.171333,241.198776 79.636658,246.265381 
	C80.043243,247.506042 80.101952,248.220245 80.155548,249.352493 
	C80.153709,254.869095 80.156998,259.967651 80.090591,265.418182 
	C79.971367,266.485413 79.921837,267.200684 79.872299,267.915924 
z"/>
<path fill="#FCA22E" opacity="1.000000" stroke="none" 
	d="
M162.185852,349.990295 
	C165.460449,345.568481 168.735031,341.146667 172.431915,336.227661 
	C178.960587,329.834595 186.527588,329.059998 194.567703,328.901581 
	C208.333511,328.630280 221.780563,339.394958 224.173035,353.424683 
	C224.166306,358.885864 224.180008,363.935913 224.193726,368.985962 
	C219.624680,393.059174 189.906250,399.521118 173.282028,386.676361 
	C169.553986,381.780365 166.238647,377.364014 162.923325,372.947693 
	C162.606659,371.855804 162.289993,370.763885 161.908508,368.917450 
	C161.830353,363.113586 161.817001,358.064301 161.888428,352.641998 
	C162.044067,351.509430 162.114960,350.749878 162.185852,349.990295 
z"/>
<path fill="#FCA22E" opacity="1.000000" stroke="none" 
	d="
M172.987030,178.827698 
	C169.802292,174.356888 166.617569,169.886063 163.093781,164.827606 
	C162.437683,163.154861 162.120651,162.069763 161.823242,160.572540 
	C161.829681,155.112183 161.816483,150.063934 161.803253,145.015701 
	C161.873138,144.268951 161.943024,143.522202 162.364151,142.248474 
	C166.177750,136.872513 169.640106,132.023560 173.102478,127.174606 
	C188.744125,114.948929 218.226608,119.755867 224.088913,145.041412 
	C224.165802,150.888565 224.179581,155.937622 224.109558,161.374512 
	C218.782242,185.571014 189.338791,191.379059 172.987030,178.827698 
z"/>
<path fill="#2D366D" opacity="1.000000" stroke="none" 
	d="
M313.624023,345.002106 
	C313.123230,339.975677 313.080231,334.948822 313.101746,329.459717 
	C328.821991,328.998566 344.478912,329.099976 360.132812,328.928040 
	C363.900726,328.886658 366.615051,329.928314 369.314056,332.661224 
	C388.155945,351.739532 407.210876,370.607269 426.082275,389.656677 
	C428.506195,392.103485 430.948914,393.138153 434.391266,393.073090 
	C444.880157,392.874725 455.375244,393.004272 466.286865,393.391296 
	C464.100586,398.852692 464.799408,403.913208 466.778259,408.967651 
	C452.788940,408.978027 438.796722,409.136963 424.813080,408.860229 
	C422.330475,408.811127 419.277130,407.566437 417.513641,405.830963 
	C398.403381,387.024292 379.426697,368.079712 360.611145,348.978119 
	C357.641937,345.963745 354.677673,344.840637 350.552734,344.918152 
	C338.399536,345.146637 326.239349,345.000946 313.624023,345.002106 
z"/>
<path fill="#2D366D" opacity="1.000000" stroke="none" 
	d="
M313.624023,185.002106 
	C313.123199,179.975677 313.080231,174.948792 313.101746,169.459686 
	C325.990204,168.998459 338.815765,168.890564 351.637177,169.072830 
	C355.080017,169.121765 357.522797,168.092819 359.944366,165.648666 
	C378.816132,146.600861 397.869934,127.733200 416.710815,108.655174 
	C419.412079,105.919930 422.131927,104.875832 425.898071,104.928688 
	C439.219086,105.115639 452.544312,105.004395 466.286926,105.391266 
	C464.100250,110.852646 464.799896,115.913200 466.778259,120.967667 
	C455.786316,120.978363 444.788696,120.803795 433.806763,121.140839 
	C431.319092,121.217194 428.285797,122.460815 426.519867,124.199356 
	C407.294098,143.127335 388.227997,162.218597 369.243286,181.389069 
	C366.712006,183.945129 364.214386,185.130829 360.547211,185.083725 
	C345.060974,184.884781 329.570679,185.000824 313.624023,185.002106 
z"/>
<path fill="#2D366D" opacity="1.000000" stroke="none" 
	d="
M313.623871,225.002533 
	C313.123016,219.975861 313.080048,214.948669 313.101562,209.459198 
	C336.611572,208.998032 360.057648,208.920853 383.502106,209.081924 
	C387.156158,209.107040 389.691040,207.993759 392.193451,205.403687 
	C400.279846,197.034103 408.688538,188.975922 416.776489,180.607773 
	C419.275970,178.021713 421.799500,176.857773 425.463379,176.916199 
	C438.928711,177.130890 452.399445,177.004105 466.287231,177.390839 
	C464.101807,182.852509 464.798096,187.913452 466.778564,192.968292 
	C455.637817,192.979156 444.493561,192.846893 433.359375,193.122925 
	C431.161652,193.177399 428.494019,194.273651 426.910431,195.793274 
	C418.034363,204.311249 409.552063,213.241364 400.620819,221.698654 
	C398.714508,223.503830 395.515045,224.836884 392.897949,224.859818 
	C366.627472,225.090012 340.354218,225.001099 313.623871,225.002533 
z"/>
<path fill="#2D366D" opacity="1.000000" stroke="none" 
	d="
M313.623871,305.002533 
	C313.123047,299.975861 313.080078,294.948669 313.101562,289.459198 
	C339.771820,288.998230 366.378448,288.909393 392.982208,289.142731 
	C395.591705,289.165619 398.770142,290.548615 400.683472,292.358551 
	C409.377747,300.582825 417.797668,309.104675 426.125244,317.704407 
	C428.533081,320.190948 431.020111,321.133392 434.441345,321.070679 
	C444.913849,320.878601 455.392120,321.003937 466.287262,321.390869 
	C464.101410,326.852509 464.798706,331.913452 466.778564,336.968292 
	C452.811554,336.978546 438.841705,337.134979 424.880188,336.863007 
	C422.395203,336.814606 419.373810,335.588745 417.575226,333.880127 
	C408.777954,325.522919 400.438965,316.682800 391.626068,308.342957 
	C389.714203,306.533691 386.530182,305.169525 383.915955,305.142151 
	C360.639954,304.898499 337.360291,305.001312 313.623871,305.002533 
z"/>
<path fill="#2D366D" opacity="1.000000" stroke="none" 
	d="
M313.623718,265.003113 
	C313.122833,259.976105 313.079865,254.948532 313.101349,249.458618 
	C364.066711,248.999252 414.967560,249.002243 466.287659,249.390259 
	C464.102661,254.852310 464.797302,259.913727 466.778870,264.969025 
	C415.879761,264.980194 364.980682,264.991364 313.623718,265.003113 
z"/>
<path fill="#2D366D" opacity="1.000000" stroke="none" 
	d="
M162.635895,373.118713 
	C166.238647,377.364014 169.553986,381.780365 172.963928,386.514221 
	C157.498886,398.833466 141.955673,410.856598 126.374641,422.830536 
	C112.628845,433.394073 98.845253,443.908539 85.063538,454.425262 
	C83.887413,455.322754 82.599518,456.073761 81.014481,457.005524 
	C78.023354,452.428497 75.381279,447.738708 72.705551,442.700745 
	C89.955162,429.148224 107.271698,415.987091 124.510658,402.725159 
	C137.175888,392.981781 149.739532,383.106354 162.635895,373.118713 
z"/>
<path fill="#2D366D" opacity="1.000000" stroke="none" 
	d="
M172.747437,127.103271 
	C169.640106,132.023560 166.177750,136.872513 162.412628,141.874908 
	C155.039948,136.676102 148.064392,131.193497 140.882706,125.995689 
	C117.925842,109.380455 94.890144,92.874153 71.900612,76.303986 
	C71.240936,75.828514 70.757690,75.108269 70.054848,74.178902 
	C73.041054,69.324135 76.164597,64.792625 79.580734,60.092129 
	C88.813583,66.662170 97.652443,73.541008 106.714394,80.112190 
	C127.969803,95.525352 149.330841,110.792847 170.657623,126.107468 
	C171.185135,126.486275 171.811920,126.726875 172.747437,127.103271 
z"/>
<path fill="#2D366D" opacity="1.000000" stroke="none" 
	d="
M161.347443,145.008301 
	C161.816483,150.063934 161.829681,155.112183 161.367599,160.579987 
	C133.981613,161.021561 107.070915,161.043579 80.160217,161.065582 
	C80.156952,155.967239 80.153687,150.868881 80.155540,145.352478 
	C107.070976,144.956589 133.981293,144.978745 161.347443,145.008301 
z"/>
<path fill="#2D366D" opacity="1.000000" stroke="none" 
	d="
M161.803665,353.014984 
	C161.817001,358.064301 161.830353,363.113586 161.823456,368.573425 
	C134.893936,369.000092 107.984665,369.016235 80.617836,369.049255 
	C80.157303,363.968414 80.154327,358.870667 80.613419,353.370422 
	C107.984886,352.983612 134.894272,352.999298 161.803665,353.014984 
z"/>
<path fill="#2D366D" opacity="1.000000" stroke="none" 
	d="
M224.193344,160.986664 
	C224.179581,155.937622 224.165802,150.888565 224.172943,145.426926 
	C242.768951,145.008698 261.344025,145.003067 280.376892,144.996765 
	C280.877655,150.023254 280.920654,155.050415 280.441528,160.540115 
	C261.344055,160.997314 242.768692,160.991989 224.193344,160.986664 
z"/>
<path fill="#2D366D" opacity="1.000000" stroke="none" 
	d="
M224.649780,368.992798 
	C224.180008,363.935913 224.166306,358.885864 224.628906,353.417847 
	C243.681778,352.998535 262.258331,352.997162 280.834900,352.995819 
	C280.877869,358.023651 280.920837,363.051483 280.899231,368.541626 
	C262.258392,369.002472 243.682098,369.001038 224.649780,368.992798 
z"/>
<path fill="#FCA22E" opacity="1.000000" stroke="none" 
	d="
M466.878571,409.316559 
	C464.799408,403.913208 464.100586,398.852692 466.741394,393.404175 
	C470.104980,386.212738 477.714417,383.070465 486.053955,385.071625 
	C492.161774,386.537201 496.979492,392.942993 497.000763,399.626831 
	C497.029724,408.724396 493.647614,414.364319 486.748260,416.723572 
	C479.384766,419.241547 471.617828,416.468567 466.878571,409.316559 
z"/>
<path fill="#FCA22E" opacity="1.000000" stroke="none" 
	d="
M466.878479,481.316132 
	C464.800446,475.913055 464.099792,470.852814 466.741150,465.404602 
	C470.104095,458.213257 477.713806,455.070648 486.053650,457.071533 
	C492.161469,458.536926 496.979492,464.942902 497.000763,471.626740 
	C497.029724,480.724396 493.647491,486.364624 486.748169,488.723663 
	C479.384369,491.241608 471.616882,488.468231 466.878479,481.316132 
z"/>
<path fill="#FCA22E" opacity="1.000000" stroke="none" 
	d="
M466.878754,337.317200 
	C464.798706,331.913452 464.101410,326.852509 466.741791,321.403625 
	C470.105621,314.212372 477.714996,311.070343 486.054199,313.071655 
	C492.162018,314.537445 496.979492,320.943054 497.000763,327.626862 
	C497.029724,336.724365 493.647888,342.363800 486.748444,344.723389 
	C479.385468,347.241455 471.619415,344.469147 466.878754,337.317200 
z"/>
<path fill="#FCA22E" opacity="1.000000" stroke="none" 
	d="
M466.878937,265.317871 
	C464.797302,259.913727 464.102661,254.852310 466.742188,249.402939 
	C470.106659,242.211746 477.715912,239.070160 486.054596,241.071747 
	C492.162384,242.537842 496.979523,248.943192 497.000793,255.626968 
	C497.029755,264.724365 493.648132,270.363403 486.748627,272.723236 
	C479.386169,275.241425 471.621124,272.469757 466.878937,265.317871 
z"/>
<path fill="#FCA22E" opacity="1.000000" stroke="none" 
	d="
M466.878723,193.317169 
	C464.798096,187.913452 464.101807,182.852509 466.741760,177.403610 
	C470.105682,170.212326 477.715057,167.070343 486.054230,169.071655 
	C492.162079,170.537491 496.979523,176.943039 497.000793,183.626892 
	C497.029755,192.724304 493.647797,198.363892 486.748444,200.723404 
	C479.385437,203.241455 471.619446,200.469162 466.878723,193.317169 
z"/>
<path fill="#FCA22E" opacity="1.000000" stroke="none" 
	d="
M466.878571,121.316559 
	C464.799896,115.913200 464.100250,110.852646 466.741394,105.404144 
	C470.104889,98.212822 477.714447,95.070480 486.053925,97.071571 
	C492.161713,98.537155 496.979492,104.943024 497.000763,111.626846 
	C497.029724,120.724312 493.647522,126.364365 486.748260,128.723587 
	C479.384766,131.241547 471.617859,128.468582 466.878571,121.316559 
z"/>
<path fill="#FCA22E" opacity="1.000000" stroke="none" 
	d="
M466.878479,49.316093 
	C464.801056,43.913033 464.099426,38.852802 466.741150,33.404617 
	C470.104126,26.213238 477.713837,23.070614 486.053680,25.071533 
	C492.161499,26.536936 496.979492,32.942905 497.000763,39.626762 
	C497.029724,48.724346 493.647400,54.364605 486.748138,56.723682 
	C479.384308,59.241600 471.616669,56.468159 466.878479,49.316093 
z"/>
<path fill="#000000" opacity="1.000000" stroke="none" 
	d="
M224.109558,161.374512 
	C242.768692,160.991989 261.344055,160.997314 280.377136,161.003418 
	C280.880859,190.025574 280.926849,219.046921 280.445984,248.532867 
	C261.344025,249.003143 242.768936,249.008835 224.109894,248.627670 
	C222.352707,240.586075 217.924454,234.880600 211.759308,230.209900 
	C201.912308,222.749817 180.866104,222.773315 172.312698,232.112061 
	C165.218826,226.747101 158.150192,221.348312 151.022202,216.029068 
	C146.263428,212.477798 141.420166,209.039719 135.827530,204.979523 
	C148.195480,196.172180 160.249161,187.588638 172.644943,178.916382 
	C189.338791,191.379059 218.782242,185.571014 224.109558,161.374512 
M241.990112,232.637024 
	C245.944336,232.750534 249.995895,233.464432 253.830963,232.842834 
	C260.269623,231.799210 256.072357,226.463379 256.805206,223.184372 
	C257.274139,221.086212 258.671387,217.390381 253.784882,216.963272 
	C241.098846,215.854477 240.770172,216.039841 241.015701,228.544357 
	C241.038223,229.691330 241.234909,230.834885 241.990112,232.637024 
M242.016541,185.351593 
	C241.708588,189.873993 239.891388,195.029755 241.458954,198.765076 
	C243.618347,203.910645 249.614166,200.061279 253.853943,200.799957 
	C254.691208,200.945831 255.934082,198.801300 256.970612,197.694931 
	C257.054840,197.605011 256.994995,197.374298 256.991913,197.209183 
	C256.711609,182.169312 259.222260,185.407608 245.382523,185.011292 
	C244.558945,184.987701 243.732239,185.073166 242.016541,185.351593 
z"/>
<path fill="#000000" opacity="1.000000" stroke="none" 
	d="
M280.903870,352.531006 
	C262.258331,352.997162 243.681778,352.998535 224.649338,353.006744 
	C221.780563,339.394958 208.333511,328.630280 194.567703,328.901581 
	C186.527588,329.059998 178.960587,329.834595 172.586731,335.920593 
	C165.216919,330.749664 158.137695,325.357605 151.004105,320.038513 
	C146.238281,316.484894 141.395142,313.035034 135.871552,309.018860 
	C148.215561,300.202820 160.258514,291.601807 172.972626,283.071899 
	C189.999252,295.558472 219.640015,288.999207 224.650146,264.991852 
	C243.682632,264.999847 262.258636,265.001892 280.834656,265.003906 
	C280.880676,294.024658 280.926758,323.045410 280.903870,352.531006 
M241.001724,317.689697 
	C241.007278,320.356140 241.125031,323.028259 240.989685,325.687531 
	C240.824844,328.925720 242.954895,329.482300 245.184570,328.910980 
	C249.089020,327.910583 255.317062,332.099030 256.708344,326.216583 
	C259.483429,314.483124 257.550781,312.764557 245.761200,313.001129 
	C245.261383,313.011169 244.758163,313.053375 244.262024,313.013092 
	C241.469940,312.786194 240.851318,314.429993 241.001724,317.689697 
M255.095810,296.892181 
	C256.704956,295.114532 258.076752,282.507812 256.619324,282.304840 
	C251.630249,281.609894 246.492477,281.966187 241.412689,282.026367 
	C241.277649,282.027954 241.123856,283.223938 241.034241,283.870636 
	C239.308929,296.319702 239.922455,297.039886 252.191620,296.997437 
	C252.852661,296.995148 253.513687,296.979431 255.095810,296.892181 
z"/>
<path fill="#2D366D" opacity="1.000000" stroke="none" 
	d="
M280.899231,264.541443 
	C262.258636,265.001892 243.682632,264.999847 224.628418,264.579102 
	C224.164749,259.111755 224.179291,254.063156 224.193832,249.014542 
	C242.768936,249.008835 261.344025,249.003143 280.376892,248.996765 
	C280.877716,254.023712 280.920746,259.051331 280.899231,264.541443 
z"/>
<path fill="#FCA22E" opacity="1.000000" stroke="none" 
	d="
M224.109894,248.627670 
	C224.179291,254.063156 224.164749,259.111755 224.171936,264.573120 
	C219.640015,288.999207 189.999252,295.558472 173.315948,282.985596 
	C169.802414,278.357697 166.616730,273.887146 163.091858,268.828857 
	C162.436172,267.155334 162.119690,266.069641 161.823395,264.573120 
	C161.830154,259.113434 161.816711,254.064529 161.888245,248.643188 
	C162.038620,247.510468 162.104034,246.750168 162.169464,245.989899 
	C165.444931,241.570923 168.720383,237.151962 172.154266,232.422516 
	C180.866104,222.773315 201.912308,222.749817 211.759308,230.209900 
	C217.924454,234.880600 222.352707,240.586075 224.109894,248.627670 
z"/>
<path fill="#000000" opacity="1.000000" stroke="none" 
	d="
M80.090576,161.421127 
	C107.070915,161.043579 133.981613,161.021561 161.347961,160.992111 
	C162.120651,162.069763 162.437683,163.154861 162.853546,164.575012 
	C154.987747,170.423553 146.998245,175.901505 139.067825,181.463684 
	C134.218765,184.864655 129.363907,188.271484 124.700188,191.916885 
	C122.193237,193.876465 120.212234,193.803726 117.714378,191.959549 
	C105.254570,182.760529 92.710556,173.675598 80.032097,164.246460 
	C79.918991,163.220505 79.969955,162.498581 80.090576,161.421127 
z"/>
<path fill="#000000" opacity="1.000000" stroke="none" 
	d="
M161.989471,245.696457 
	C162.104034,246.750168 162.038620,247.510468 161.432587,248.635651 
	C133.981537,248.978516 107.071098,248.956482 80.160660,248.934433 
	C80.101952,248.220245 80.043243,247.506042 79.929932,246.435822 
	C87.925285,240.050064 95.939751,233.972137 104.038391,228.008560 
	C108.967377,224.378998 113.953094,220.813004 119.086472,217.485550 
	C120.152100,216.794830 122.440857,216.642929 123.389908,217.324005 
	C136.276459,226.572174 149.026062,236.011154 161.989471,245.696457 
z"/>
<path fill="#000000" opacity="1.000000" stroke="none" 
	d="
M161.803207,264.983917 
	C162.119690,266.069641 162.436172,267.155334 162.850555,268.577332 
	C153.663712,275.412079 144.385254,281.919556 135.091522,288.405121 
	C130.769073,291.421539 126.541107,296.510071 122.042274,296.774139 
	C117.824768,297.021698 113.123322,292.403290 108.957214,289.468536 
	C99.261841,282.638824 89.760597,275.533508 80.026497,268.227905 
	C79.921837,267.200684 79.971367,266.485413 80.548149,265.401245 
	C107.984673,265.016174 134.893936,265.000031 161.803207,264.983917 
z"/>
<path fill="#000000" opacity="1.000000" stroke="none" 
	d="
M161.888428,352.641998 
	C134.894272,352.999298 107.984886,352.983612 80.617889,352.951050 
	C80.101753,352.220001 80.043228,351.505798 79.930481,350.436035 
	C88.037476,344.003448 96.172707,337.891144 104.369820,331.863037 
	C109.141678,328.353882 113.942719,324.872772 118.893639,321.627716 
	C119.983971,320.913086 122.255234,320.565430 123.153336,321.207977 
	C136.126358,330.490204 148.957642,339.970581 162.004364,349.696899 
	C162.114960,350.749878 162.044067,351.509430 161.888428,352.641998 
z"/>
<path fill="#2D366D" opacity="1.000000" stroke="none" 
	d="
M161.823395,264.573120 
	C134.893936,265.000031 107.984673,265.016174 80.617844,265.049255 
	C80.156998,259.967651 80.153709,254.869095 80.155548,249.352493 
	C107.071098,248.956482 133.981537,248.978516 161.347626,249.008087 
	C161.816711,254.064529 161.830154,259.113434 161.823395,264.573120 
z"/>
<path fill="#2D366D" opacity="1.000000" stroke="none" 
	d="
M241.670425,232.308533 
	C241.234909,230.834885 241.038223,229.691330 241.015701,228.544357 
	C240.770172,216.039841 241.098846,215.854477 253.784882,216.963272 
	C258.671387,217.390381 257.274139,221.086212 256.805206,223.184372 
	C256.072357,226.463379 260.269623,231.799210 253.830963,232.842834 
	C249.995895,233.464432 245.944336,232.750534 241.670425,232.308533 
z"/>
<path fill="#2D366D" opacity="1.000000" stroke="none" 
	d="
M242.461761,185.229736 
	C243.732239,185.073166 244.558945,184.987701 245.382523,185.011292 
	C259.222260,185.407608 256.711609,182.169312 256.991913,197.209183 
	C256.994995,197.374298 257.054840,197.605011 256.970612,197.694931 
	C255.934082,198.801300 254.691208,200.945831 253.853943,200.799957 
	C249.614166,200.061279 243.618347,203.910645 241.458954,198.765076 
	C239.891388,195.029755 241.708588,189.873993 242.461761,185.229736 
z"/>
<path fill="#2D366D" opacity="1.000000" stroke="none" 
	d="
M241.004578,317.222900 
	C240.851318,314.429993 241.469940,312.786194 244.262024,313.013092 
	C244.758163,313.053375 245.261383,313.011169 245.761200,313.001129 
	C257.550781,312.764557 259.483429,314.483124 256.708344,326.216583 
	C255.317062,332.099030 249.089020,327.910583 245.184570,328.910980 
	C242.954895,329.482300 240.824844,328.925720 240.989685,325.687531 
	C241.125031,323.028259 241.007278,320.356140 241.004578,317.222900 
z"/>
<path fill="#2D366D" opacity="1.000000" stroke="none" 
	d="
M254.635254,296.931091 
	C253.513687,296.979431 252.852661,296.995148 252.191620,296.997437 
	C239.922455,297.039886 239.308929,296.319702 241.034241,283.870636 
	C241.123856,283.223938 241.277649,282.027954 241.412689,282.026367 
	C246.492477,281.966187 251.630249,281.609894 256.619324,282.304840 
	C258.076752,282.507812 256.704956,295.114532 254.635254,296.931091 
z"/>
</svg>